<?xml version="1.0" standalone="no"?>
<!DOCTYPE svg PUBLIC "-//W3C//DTD SVG 20010904//EN"
 "http://www.w3.org/TR/2001/REC-SVG-20010904/DTD/svg10.dtd">
<svg version="1.0" xmlns="http://www.w3.org/2000/svg"
 width="700.000000pt" height="700.000000pt" viewBox="0 0 700.000000 700.000000"
 preserveAspectRatio="xMidYMid meet">
<metadata>
Created by potrace 1.11, written by Peter Selinger 2001-2013
</metadata>
<g transform="translate(0.000000,700.000000) scale(0.100000,-0.100000)"
fill="#000000" stroke="none">
<path d="M3476 6438 c-10 -79 -20 -146 -22 -149 -2 -3 -36 -9 -77 -12 -454
-39 -865 -316 -1076 -726 -128 -250 -185 -577 -131 -753 100 -325 527 -569
1099 -629 155 -16 441 -6 596 20 494 85 840 298 957 590 20 49 23 73 22 191 0
197 -36 349 -123 536 -162 343 -453 599 -811 712 -100 32 -258 62 -321 62 -21
0 -40 3 -42 8 -3 4 -13 71 -23 150 -10 78 -21 142 -24 142 -3 0 -14 -64 -24
-142z"/>
<path d="M1613 4336 c-245 -141 -328 -194 -320 -202 7 -6 161 -96 342 -201
182 -104 672 -387 1090 -629 418 -241 766 -438 775 -438 13 0 497 277 1905
1091 165 95 300 178 300 184 0 5 -146 94 -325 197 l-325 188 -6 -195 c-7 -216
-15 -262 -66 -367 -149 -310 -555 -531 -1148 -626 -127 -20 -582 -17 -723 5
-543 87 -949 313 -1096 611 -50 102 -58 147 -65 372 l-6 201 -332 -191z"/>
<path d="M1270 2789 c0 -431 3 -881 7 -1000 l6 -217 111 -63 c61 -35 117 -65
123 -67 7 -2 67 27 133 65 l120 68 0 708 c0 389 3 707 8 707 4 0 169 -94 367
-208 l360 -208 5 -858 5 -859 118 -68 c65 -38 122 -69 127 -69 5 0 62 31 127
69 l118 68 3 856 2 855 -117 68 c-65 37 -451 261 -858 497 -407 236 -746 432
-752 434 -10 4 -13 -156 -13 -778z"/>
<path d="M929 3401 l-29 -30 2 -222 3 -223 120 -68 120 -67 3 241 c2 241 2
242 -23 294 -48 98 -138 132 -196 75z"/>
<path d="M5819 3337 c-40 -27 -75 -76 -89 -126 -12 -43 -14 -504 -2 -499 5 2
63 34 130 72 l122 70 0 224 0 224 -29 29 c-37 36 -84 39 -132 6z"/>
<path d="M5345 3065 c-44 -24 -72 -53 -95 -100 -18 -38 -20 -61 -20 -288 0
-136 3 -247 6 -247 4 0 63 32 131 71 l124 71 -3 224 c-3 223 -3 224 -28 249
-33 32 -77 40 -115 20z"/>
<path d="M4828 2765 c-21 -14 -50 -47 -65 -73 l-28 -47 -3 -252 c-2 -139 0
-253 3 -253 3 0 62 32 131 72 l124 72 0 224 0 224 -29 29 c-37 37 -83 38 -133
4z"/>
<path d="M2058 2550 c-14 -10 -35 -42 -47 -71 -47 -109 -52 -160 -58 -595 l-6
-411 178 -101 c97 -56 182 -102 187 -102 18 0 3 805 -16 916 -39 228 -119 384
-197 384 -9 0 -28 -9 -41 -20z"/>
<path d="M4351 2488 c-47 -23 -97 -89 -106 -142 -3 -17 -5 -135 -3 -262 l3
-231 125 72 125 73 3 210 c1 119 -2 221 -7 235 -10 26 -40 50 -76 61 -12 3
-39 -3 -64 -16z"/>
<path d="M3833 2190 c-24 -18 -52 -51 -65 -78 -22 -45 -23 -59 -26 -294 -2
-137 0 -248 4 -248 3 0 62 32 130 71 l124 70 0 226 0 225 -29 29 c-40 39 -84
39 -138 -1z"/>
<path d="M3158 2121 l-33 -29 0 -224 0 -223 125 -72 125 -71 3 226 c3 261 -5
305 -64 366 -62 64 -107 71 -156 27z"/>
</g>
</svg>
